<?xml version="1.0" standalone="no"?>
<!DOCTYPE svg PUBLIC "-//W3C//DTD SVG 20010904//EN"
 "http://www.w3.org/TR/2001/REC-SVG-20010904/DTD/svg10.dtd">
<svg version="1.0" xmlns="http://www.w3.org/2000/svg"
 width="682.000000pt" height="682.000000pt" viewBox="0 0 682.000000 682.000000"
 preserveAspectRatio="xMidYMid meet">

<g transform="translate(0.000000,682.000000) scale(0.100000,-0.100000)"
fill="#000000" stroke="none">
<path d="M2708 6343 c7 -3 16 -2 19 1 4 3 -2 6 -13 5 -11 0 -14 -3 -6 -6z"/>
<path d="M4103 6343 c9 -2 23 -2 30 0 6 3 -1 5 -18 5 -16 0 -22 -2 -12 -5z"/>
<path d="M2966 6311 c70 -25 103 -44 160 -89 51 -40 117 -129 129 -172 3 -14
-7 -2 -23 26 -41 68 -139 157 -215 193 -256 121 -651 22 -908 -229 -48 -47
-101 -107 -118 -134 -17 -28 -31 -45 -31 -39 0 26 87 138 164 210 89 84 190
147 320 200 93 38 88 45 -7 9 -196 -74 -390 -231 -487 -395 -42 -72 -84 -188
-95 -264 -7 -46 -9 -48 -74 -82 -185 -97 -342 -289 -416 -506 -53 -155 -68
-373 -34 -492 10 -38 10 -39 -39 -91 -28 -29 -66 -84 -85 -122 -21 -40 -57
-90 -87 -119 -89 -86 -164 -202 -209 -327 -48 -131 -55 -176 -56 -363 0 -189
9 -240 56 -323 19 -33 19 -35 -2 -160 -27 -163 -22 -373 11 -497 49 -182 176
-394 317 -525 101 -94 263 -195 393 -244 40 -15 49 -24 85 -92 86 -165 233
-313 380 -384 109 -53 197 -73 330 -73 168 0 307 43 400 124 20 18 37 30 39
28 2 -2 12 -20 22 -39 17 -32 19 -69 24 -460 4 -319 8 -431 18 -447 14 -25 61
-53 87 -53 30 0 74 34 92 70 17 34 18 34 21 10 10 -65 87 -93 130 -47 l22 23
0 740 c-1 608 -3 746 -15 778 -8 22 -12 43 -9 48 3 4 0 8 -5 8 -6 0 -11 10
-11 23 -1 28 -30 68 -37 49 -3 -6 -8 -10 -13 -7 -9 6 -39 -64 -50 -120 -6 -32
-8 -22 -9 53 -1 115 -14 144 -96 228 -96 98 -226 151 -395 161 -78 4 -127 0
-275 -25 -160 -28 -195 -31 -315 -26 -226 9 -303 45 -472 222 -95 100 -120
158 -121 282 -1 150 53 275 140 327 54 31 135 38 191 14 l33 -14 -49 -28 c-99
-56 -145 -139 -145 -264 -1 -69 3 -89 29 -145 41 -86 110 -153 204 -199 l75
-36 275 -6 275 -6 -286 1 -285 1 -75 37 c-49 24 -92 55 -122 87 -26 28 -47 48
-47 45 0 -3 15 -28 33 -57 45 -70 106 -123 182 -158 90 -43 165 -52 340 -44
83 5 247 9 365 10 262 3 404 21 497 65 41 19 67 37 70 50 3 11 8 18 12 16 3
-2 12 2 19 10 7 8 10 14 6 14 -4 0 4 12 18 28 40 41 69 142 78 267 35 470 46
2980 14 3110 -31 127 -135 249 -268 316 -43 21 -88 39 -100 38 -12 0 0 -8 30
-18z m-32 -245 c52 -22 113 -72 133 -110 10 -17 20 -61 23 -98 5 -63 0 -82
-15 -58 -10 16 -105 62 -160 76 -27 8 -79 13 -115 12 l-65 -1 85 -7 c104 -9
176 -36 255 -95 54 -40 205 -200 205 -216 0 -4 -51 44 -112 106 -88 87 -128
119 -180 145 -156 75 -355 42 -497 -84 -27 -24 -64 -47 -83 -51 -18 -4 -46
-14 -63 -23 -30 -15 -30 -15 -12 6 10 11 37 25 60 30 25 7 64 30 96 57 61 52
111 80 191 107 49 16 50 18 15 12 -61 -9 -154 -57 -218 -113 -32 -28 -68 -51
-80 -51 -12 0 -37 -9 -55 -20 -86 -53 -97 -173 -20 -220 68 -41 141 -20 252
73 90 74 145 97 236 97 88 0 137 -19 200 -77 53 -47 79 -103 80 -165 l0 -48
-62 40 c-93 60 -189 80 -298 60 -104 -19 -184 -68 -319 -195 -149 -142 -173
-155 -314 -166 -170 -14 -250 -58 -309 -172 -33 -64 -31 -185 4 -252 37 -72
110 -135 193 -170 39 -15 86 -44 105 -63 l35 -34 -39 26 c-21 14 -64 35 -96
47 -31 11 -80 38 -109 60 l-53 40 26 -33 c31 -42 63 -65 152 -112 39 -20 88
-55 110 -77 l39 -40 3 -100 c3 -79 0 -111 -14 -147 -23 -62 -83 -125 -147
-153 -50 -23 -62 -24 -269 -24 l-216 0 -43 30 c-65 46 -84 85 -84 175 0 41 6
89 13 107 20 46 79 83 144 90 68 7 126 -21 241 -113 44 -35 90 -67 103 -70 39
-10 76 5 116 47 32 34 38 47 38 83 0 56 -22 84 -101 126 -99 53 -293 186 -327
224 -46 53 -55 94 -49 220 6 130 27 199 88 293 54 83 129 150 220 198 173 90
194 115 215 260 20 134 42 174 148 281 127 126 275 207 449 244 59 13 207 4
251 -14z m-1109 -529 c-113 -59 -172 -105 -250 -194 -79 -89 -105 -117 -89
-93 88 130 207 241 319 295 100 49 116 43 20 -8z m1051 -98 c82 -15 166 -62
225 -126 70 -77 61 -83 -13 -9 -107 106 -222 143 -360 116 -96 -18 -165 -61
-298 -185 -159 -148 -191 -165 -330 -175 -121 -9 -174 -27 -235 -81 -25 -22
-35 -27 -28 -14 37 68 162 114 313 115 75 0 135 37 271 166 136 130 196 168
292 189 79 17 91 17 163 4z m55 -250 c23 -11 60 -40 84 -64 60 -59 75 -115 75
-272 l0 -123 -70 0 c-122 0 -180 -42 -180 -130 0 -82 59 -145 142 -153 55 -5
95 -28 103 -60 3 -12 4 -179 3 -370 l-3 -348 -46 35 c-66 52 -89 99 -100 211
-15 151 -46 215 -155 323 -96 95 -99 103 -99 267 0 163 4 173 104 268 33 31
55 57 49 57 -5 0 4 16 21 35 42 48 42 95 2 136 -42 41 -83 39 -157 -9 -117
-77 -200 -195 -224 -321 -5 -30 -10 -111 -10 -181 0 -196 28 -266 159 -404
l56 -60 -70 60 -70 59 72 -82 c98 -112 102 -119 117 -221 23 -153 78 -242 210
-336 33 -24 70 -54 81 -67 l20 -24 -25 21 c-14 12 -47 36 -75 55 -27 18 -70
51 -95 74 -25 22 -36 29 -25 15 34 -43 88 -94 136 -128 25 -18 63 -54 84 -79
39 -46 39 -48 43 -142 l4 -96 -55 60 c-61 67 -117 102 -238 145 -144 52 -237
120 -335 246 -73 93 -122 140 -188 179 -25 15 -46 30 -46 33 0 3 10 17 23 31
l22 25 -29 -22 c-16 -12 -38 -22 -49 -22 -15 0 -9 8 24 34 50 38 88 88 120
161 31 68 39 279 15 373 -31 124 -129 234 -263 298 -82 39 -132 79 -116 95 5
5 66 21 134 35 68 14 138 32 154 39 28 13 27 14 -30 9 l-60 -4 62 14 c99 23
158 62 282 184 148 147 202 175 314 167 31 -3 76 -14 98 -26z m-96 -179 c4 -6
-5 -8 -22 -4 -38 7 -130 -53 -202 -132 -30 -32 -48 -48 -41 -35 23 44 104 123
155 152 50 29 99 37 110 19z m-702 -167 c-13 -2 -35 -2 -50 0 -16 2 -5 4 22 4
28 0 40 -2 28 -4z m662 -48 c-22 -19 -44 -34 -50 -34 -5 0 8 15 30 34 22 19
45 35 50 35 6 0 -8 -16 -30 -35z m-722 -124 c81 -38 177 -113 199 -155 6 -11
-18 7 -54 41 -45 43 -91 74 -151 103 -47 22 -95 52 -106 67 -30 38 -26 50 5
14 14 -17 62 -48 107 -70z m1031 40 c3 -5 -38 -9 -91 -10 -59 -1 -103 -6 -112
-14 -12 -10 -13 -9 -7 1 4 7 18 17 30 22 28 12 173 12 180 1z m-1472 -174 c12
-6 74 -47 140 -89 65 -43 141 -89 169 -103 28 -15 49 -29 46 -31 -8 -9 -105
44 -203 112 -52 35 -117 75 -144 89 -106 54 -239 20 -333 -85 -26 -29 -47 -47
-47 -41 0 6 30 42 68 79 72 73 129 102 204 102 41 0 47 12 23 44 -8 11 -15 25
-15 30 0 6 16 -13 35 -42 20 -29 45 -58 57 -65z m1140 -306 c38 -41 74 -83 80
-95 10 -20 -145 140 -168 173 -6 9 -15 27 -18 41 -6 20 -3 17 15 -10 12 -19
53 -68 91 -109z m-1620 -18 c-11 -16 -37 -44 -58 -63 -42 -38 -23 -11 35 53
41 44 50 48 23 10z m-92 -107 c0 -2 -8 -10 -17 -17 -16 -13 -17 -12 -4 4 13
16 21 21 21 13z m1083 -107 c-26 -44 -89 -94 -152 -119 -51 -20 -69 -21 -277
-18 l-222 3 -42 30 c-23 17 -51 46 -63 65 -19 30 -15 28 28 -17 68 -70 92 -75
339 -71 197 3 202 4 258 31 34 17 75 48 100 77 24 27 44 49 46 50 2 0 -5 -14
-15 -31z m-726 -297 c57 -26 63 -27 293 -32 l235 -5 -179 -6 c-98 -4 -207 -3
-242 1 -109 14 -221 80 -267 158 -12 22 0 13 42 -29 36 -35 84 -71 118 -87z
m-144 51 c52 -63 82 -89 125 -110 l57 -28 290 -6 c317 -6 319 -7 431 -72 62
-37 144 -116 144 -140 0 -7 -21 -33 -46 -57 -60 -59 -78 -94 -71 -142 11 -80
78 -138 141 -122 14 3 53 30 86 60 76 68 97 69 193 12 40 -24 106 -59 147 -79
41 -20 95 -54 119 -76 42 -37 45 -43 49 -99 5 -75 -20 -131 -75 -169 -51 -34
-63 -32 -63 10 0 42 -15 46 -23 6 -8 -38 -28 -41 -241 -41 -326 1 -419 23
-511 121 l-40 42 46 -36 c25 -20 72 -49 105 -64 l59 -28 267 -3 268 -3 25 25
c43 43 27 113 -30 141 -26 12 -72 15 -222 15 -103 0 -205 5 -225 10 -51 15
-117 66 -155 123 -17 25 -45 89 -62 140 -38 112 -71 168 -135 224 -59 52 -120
73 -208 73 -161 0 -296 -97 -393 -281 -48 -91 -65 -164 -72 -304 -6 -134 6
-206 54 -305 31 -66 245 -284 338 -345 109 -72 163 -88 320 -95 97 -5 152 -12
178 -24 47 -21 123 -90 144 -130 12 -24 6 -20 -30 19 -25 28 -69 64 -98 80
-50 27 -65 29 -194 36 -164 8 -215 23 -333 102 -74 49 -265 229 -311 292 -44
61 54 -122 108 -200 116 -171 222 -282 299 -317 66 -30 13 -19 -66 13 -111 46
-197 106 -293 206 -185 192 -249 330 -249 535 0 111 16 191 52 261 48 94 42
179 -21 262 -56 74 -71 109 -78 178 -6 73 11 227 32 288 19 54 53 91 79 87 11
-2 51 -40 89 -85z m974 12 c66 -30 131 -90 194 -179 27 -39 35 -53 17 -31 -18
22 -64 72 -103 111 -55 55 -86 77 -145 103 -41 18 -61 29 -45 26 17 -3 53 -17
82 -30z m820 -100 c47 -38 98 -86 111 -105 l25 -35 -37 38 c-21 21 -68 62
-105 91 -72 58 -131 120 -131 138 0 7 11 -4 25 -23 14 -19 64 -65 112 -104z
m-1034 -12 c-7 -2 -21 -2 -30 0 -10 3 -4 5 12 5 17 0 24 -2 18 -5z m536 -196
c92 -74 109 -84 228 -128 115 -42 185 -88 235 -152 28 -36 23 -34 -33 19 -69
65 -111 91 -199 119 -73 23 -120 48 -206 106 -107 72 -109 72 -194 -3 -40 -35
-87 -74 -104 -87 l-31 -24 25 25 c83 82 190 178 201 178 6 0 42 -24 78 -53z
m-713 -20 c27 -14 67 -44 87 -66 51 -56 47 -63 -6 -9 -66 68 -126 93 -222 93
-97 -1 -162 -27 -245 -100 l-55 -49 45 48 c84 88 154 118 270 113 56 -3 88
-10 126 -30z m-732 -144 c4 -7 5 -13 2 -13 -9 0 -66 81 -66 93 0 9 42 -44 64
-80z m1447 -70 c13 -16 12 -17 -3 -4 -17 13 -22 21 -14 21 2 0 10 -8 17 -17z
m256 -130 c-9 -8 -237 100 -237 112 0 2 54 -22 120 -53 66 -31 118 -57 117
-59z m-982 61 c-22 -8 -65 -33 -95 -55 l-55 -41 34 36 c38 39 105 76 136 75
12 0 4 -6 -20 -15z m248 -97 c32 -54 96 -113 151 -138 36 -16 67 -19 248 -19
140 0 209 -4 214 -11 5 -8 -53 -10 -207 -7 -232 4 -246 7 -335 74 -27 20 -104
122 -104 138 0 14 10 3 33 -37z m-1068 -17 c12 0 39 9 60 20 l40 20 -28 -25
c-39 -35 -105 -35 -144 0 l-28 26 40 -21 c22 -11 49 -20 60 -20z m907 -142 c8
-7 26 -30 40 -50 29 -44 112 -134 130 -141 26 -10 -101 -7 -129 4 -49 18 -101
60 -117 94 -19 40 -21 91 -3 98 23 10 63 7 79 -5z m-4 -182 c19 -10 52 -21 75
-26 l42 -8 -35 -1 c-61 -1 -140 46 -176 104 -15 25 -11 23 22 -11 21 -23 54
-49 72 -58z m1001 37 c-23 -27 -91 -73 -108 -73 -9 1 4 11 29 24 25 13 54 33
64 45 23 25 35 28 15 4z m-1364 -192 c91 -95 210 -184 274 -206 30 -10 106
-20 185 -24 118 -7 140 -11 197 -38 67 -31 137 -84 173 -131 11 -15 -6 -3 -39
26 -33 29 -93 69 -132 89 -69 34 -79 36 -210 43 -178 9 -219 25 -344 128 -109
91 -171 156 -193 203 -16 33 -16 33 1 9 10 -14 49 -58 88 -99z m1219 -201 c98
-25 162 -60 217 -118 l44 -45 -59 47 c-122 97 -198 120 -394 121 -79 0 -133 3
-120 6 53 16 234 9 312 -11z m-1484 -85 c13 -14 21 -25 18 -25 -2 0 -15 11
-28 25 -13 14 -21 25 -18 25 2 0 15 -11 28 -25z m170 -165 c30 -23 102 -66
161 -96 123 -61 196 -119 292 -230 l69 -79 -89 91 c-107 111 -171 159 -284
212 -99 47 -183 108 -254 184 l-50 53 50 -46 c28 -26 75 -65 105 -89z m1309
49 c88 -31 162 -94 201 -174 16 -31 17 -35 3 -15 -87 123 -181 177 -329 190
-55 5 -120 7 -146 3 -26 -3 -60 -2 -75 2 l-28 8 30 8 c53 13 283 -1 344 -22z
m-125 -118 c144 -21 300 -124 342 -226 9 -22 20 -47 25 -57 4 -9 11 -51 14
-94 l5 -79 -54 54 c-44 44 -57 64 -66 104 -12 56 -65 142 -107 173 -66 49 -95
58 -190 59 l-93 0 -15 44 c-8 25 -15 45 -15 46 0 1 19 -1 43 -6 23 -4 73 -13
111 -18z m-726 -71 c27 -5 68 -10 91 -11 43 -3 46 -6 33 -27 -7 -10 -15 -10
-38 -1 -16 6 -60 19 -99 29 -76 20 -69 26 13 10z m807 -25 c37 -15 92 -60 106
-88 6 -11 -5 -4 -25 16 -58 58 -90 70 -196 75 -140 6 -202 -8 -275 -64 -48
-38 -54 -40 -30 -14 57 61 111 84 210 91 102 7 167 2 210 -16z m-617 -20 c5
-22 -18 -37 -35 -23 -17 13 -17 35 0 41 19 8 32 2 35 -18z m-131 -7 c68 -25
103 -49 133 -92 22 -30 22 -30 -16 5 -44 42 -108 76 -174 95 -26 7 -36 13 -23
13 12 1 48 -9 80 -21z m258 -118 c0 -58 3 -72 24 -94 50 -53 122 -55 192 -5
31 22 31 22 20 1 -14 -27 -57 -50 -107 -57 -65 -10 -118 25 -187 123 -55 78
-57 83 -43 104 9 12 16 30 16 40 0 15 7 13 43 -13 l42 -30 0 -69z m-180 -170
c33 -33 57 -60 54 -60 -2 0 -31 27 -64 60 -33 33 -57 60 -54 60 2 0 31 -27 64
-60z m921 -12 l29 -33 -32 29 c-31 28 -38 36 -30 36 2 0 16 -15 33 -32z m-306
-53 c-13 -14 -49 -38 -79 -53 -52 -25 -65 -27 -181 -27 -79 0 -139 5 -163 13
-55 20 -41 23 28 6 136 -32 300 -7 375 56 43 36 51 38 20 5z m-471 -41 c14
-12 -19 -1 -35 12 -18 14 -18 14 6 3 14 -6 27 -13 29 -15z"/>
<path d="M2163 5364 c-20 -20 -24 -31 -19 -57 13 -64 62 -86 104 -47 32 30 30
82 -4 109 -35 27 -49 26 -81 -5z m78 -5 c30 -30 11 -78 -33 -79 -21 0 -48 26
-48 47 0 21 29 53 47 53 7 0 22 -9 34 -21z"/>
<path d="M1619 4147 c-62 -47 -40 -138 37 -152 69 -12 112 88 59 140 -26 27
-70 32 -96 12z m83 -14 c22 -19 24 -66 4 -82 -8 -7 -32 -11 -53 -9 -30 2 -39
8 -47 30 -20 58 50 103 96 61z"/>
<path d="M2545 3845 c-40 -39 -26 -106 24 -123 73 -26 125 72 68 126 -30 29
-62 28 -92 -3z m83 3 c13 -13 16 -47 6 -72 -7 -19 -64 -22 -82 -4 -17 17 -15
48 5 70 18 21 53 24 71 6z"/>
<path d="M1299 3581 c-46 -46 -34 -120 23 -140 66 -23 127 53 94 116 -13 27
-52 53 -77 53 -6 0 -24 -13 -40 -29z m86 -6 c28 -27 30 -37 15 -66 -12 -22
-78 -27 -98 -7 -20 20 -13 55 14 77 34 27 40 26 69 -4z"/>
<path d="M3878 6323 c7 -3 16 -2 19 1 4 3 -2 6 -13 5 -11 0 -14 -3 -6 -6z"/>
<path d="M4238 6323 c7 -3 16 -2 19 1 4 3 -2 6 -13 5 -11 0 -14 -3 -6 -6z"/>
<path d="M3903 6305 c-122 -33 -243 -118 -305 -214 -15 -25 -28 -40 -28 -35 0
20 61 105 106 148 25 25 70 57 100 73 29 15 51 29 49 31 -2 3 -32 -12 -67 -31
-76 -42 -166 -134 -202 -205 -55 -109 -55 -101 -57 -1092 -1 -503 1 -1023 5
-1155 4 -132 11 -415 17 -630 5 -214 14 -412 20 -440 13 -64 53 -146 89 -182
16 -15 30 -32 30 -38 0 -13 54 -50 103 -70 72 -30 334 -53 682 -60 288 -6 339
-5 394 9 127 32 237 112 298 215 l26 45 -57 -57 c-68 -67 -156 -112 -241 -124
-33 -5 -177 -6 -320 -3 l-260 6 275 2 c300 2 355 10 440 59 65 39 132 110 165
176 33 68 44 176 26 244 -18 68 -90 148 -175 198 -15 8 -12 10 16 12 18 2 61
5 96 9 58 5 66 4 111 -25 122 -79 170 -327 93 -484 -44 -88 -211 -250 -306
-297 -64 -32 -75 -34 -227 -42 -152 -8 -168 -7 -297 18 -176 34 -332 41 -430
20 -142 -30 -285 -126 -349 -235 -22 -36 -27 -59 -31 -145 -4 -57 -8 -88 -11
-72 -6 27 -41 48 -41 24 0 -6 -6 -6 -15 2 -12 10 -16 8 -24 -13 -5 -13 -18
-27 -29 -29 -16 -5 -20 -18 -25 -98 -11 -150 -8 -1355 3 -1384 22 -60 111 -58
142 2 14 29 17 31 22 14 19 -58 92 -85 144 -52 61 38 62 46 62 501 0 357 2
415 16 445 9 19 18 34 21 34 2 0 27 -17 56 -39 93 -69 170 -97 304 -111 190
-20 362 23 520 131 98 67 219 213 286 345 23 46 31 53 94 79 280 116 477 295
609 557 88 175 124 367 105 568 -6 63 -15 131 -21 150 -16 56 -12 99 16 169
77 191 69 463 -20 682 -40 99 -116 216 -190 293 -40 41 -81 96 -98 131 -16 33
-52 86 -79 117 l-50 57 12 67 c17 96 7 289 -21 394 -61 239 -226 457 -428 570
l-80 45 -7 51 c-9 75 -58 208 -101 272 -77 117 -219 247 -346 316 -66 37 -218
97 -241 95 -7 0 19 -11 57 -25 155 -54 287 -136 396 -248 64 -65 140 -168 140
-189 0 -6 -15 12 -32 39 -103 155 -308 310 -498 376 -139 48 -327 62 -437 33z
m302 -240 c148 -39 355 -173 438 -283 57 -75 77 -125 92 -223 22 -147 48 -182
188 -250 81 -40 177 -106 177 -122 0 -5 -8 -3 -17 4 -16 13 -17 12 -4 -3 7
-10 17 -16 21 -13 5 3 24 -14 43 -37 125 -154 164 -427 78 -545 -30 -41 -236
-187 -336 -238 -64 -32 -105 -80 -105 -123 0 -14 11 -44 25 -68 45 -77 133
-82 213 -10 134 118 216 151 315 122 72 -21 98 -59 105 -154 6 -92 -9 -142
-58 -185 -57 -52 -97 -59 -310 -55 l-185 3 -67 33 c-76 37 -120 84 -143 151
-17 50 -20 176 -5 215 16 44 82 107 154 147 63 35 126 81 126 92 0 9 -206 -97
-229 -117 l-24 -21 12 22 c14 28 49 52 142 96 91 44 168 121 193 193 50 147
-13 298 -152 362 -42 19 -78 26 -166 31 -140 9 -159 18 -324 174 -137 128
-190 161 -294 183 -126 27 -254 -3 -345 -80 l-33 -28 0 42 c0 73 21 121 75
176 61 61 120 84 219 84 87 0 143 -26 237 -107 95 -83 150 -100 224 -69 62 26
84 110 45 174 -21 34 -74 72 -101 72 -9 0 -45 23 -80 51 -123 98 -228 135
-358 126 -82 -5 -161 -31 -222 -72 l-39 -25 0 52 c0 30 9 71 19 93 24 53 102
121 160 140 57 18 208 13 296 -10z m-24 -215 c31 -12 91 -48 134 -80 43 -33
94 -65 114 -71 43 -14 58 -25 73 -53 10 -20 10 -20 -13 1 -14 12 -44 29 -68
38 -25 8 -69 36 -100 61 -96 79 -189 114 -302 114 -144 0 -258 -64 -411 -229
-38 -41 -68 -68 -68 -62 0 19 212 227 260 254 106 61 266 72 381 27z m840
-305 c111 -57 234 -170 303 -277 53 -84 44 -80 -23 9 -97 129 -196 212 -314
263 -31 14 -57 28 -57 32 0 9 48 -5 91 -27z m-936 -105 c103 -17 175 -60 306
-186 163 -155 183 -165 326 -176 79 -6 130 -15 163 -29 49 -21 130 -97 130
-121 0 -7 -11 3 -25 23 -14 19 -50 50 -81 69 -52 31 -63 34 -173 40 -148 8
-172 21 -340 175 -139 129 -183 158 -273 181 -142 37 -273 -3 -385 -117 -35
-34 -63 -58 -63 -53 0 16 131 139 170 159 38 20 121 43 160 44 14 1 52 -4 85
-9z m55 -253 c27 -12 92 -67 163 -136 123 -121 166 -153 251 -183 39 -14 43
-17 16 -12 -19 3 -54 14 -77 24 -24 11 -43 17 -43 15 0 -10 89 -54 130 -65 25
-7 91 -18 148 -26 56 -7 107 -16 112 -19 33 -20 -15 -67 -129 -126 -144 -73
-226 -177 -252 -314 -17 -89 -7 -268 18 -332 27 -67 85 -147 131 -178 27 -18
32 -25 18 -25 -10 0 -41 22 -67 49 -62 61 -63 52 -4 -16 46 -52 46 -52 23 -64
-77 -40 -135 -90 -202 -172 -124 -153 -212 -221 -352 -267 -108 -36 -194 -89
-247 -151 l-38 -44 3 96 3 95 65 60 c35 32 96 90 135 127 l70 69 -65 -49 c-74
-56 -150 -106 -150 -99 0 3 36 32 79 65 154 117 185 174 217 399 4 22 26 56
75 110 97 107 128 151 63 92 -27 -25 -60 -55 -74 -65 -25 -20 -25 -20 -8 0 9
11 41 45 71 76 104 107 144 231 133 416 -7 129 -19 182 -58 261 -55 112 -198
232 -276 232 -44 0 -92 -46 -92 -89 0 -52 17 -78 77 -119 33 -22 65 -48 73
-58 17 -22 13 -19 -57 36 -24 18 -45 31 -48 29 -2 -3 23 -27 57 -55 103 -83
103 -82 103 -257 0 -181 -1 -184 -114 -302 -94 -98 -120 -150 -133 -269 -14
-127 -32 -171 -91 -228 -28 -26 -54 -48 -59 -48 -12 0 -10 693 3 727 13 35 25
43 70 43 134 0 222 140 148 234 -34 43 -71 56 -155 56 l-77 0 5 138 c4 109 9
146 25 182 22 49 96 124 141 142 79 32 167 30 242 -5z m-12 -214 c30 -20 71
-60 92 -88 40 -53 64 -95 56 -95 -3 0 -12 12 -20 28 -19 37 -109 127 -156 157
-21 13 -53 29 -71 34 l-34 11 39 -5 c24 -2 62 -20 94 -42z m635 -130 c-13 -2
-35 -2 -50 0 -16 2 -5 4 22 4 28 0 40 -2 28 -4z m115 -98 c-12 -26 -56 -56
-163 -110 -32 -16 -87 -57 -121 -91 -35 -33 -58 -51 -52 -40 25 46 111 115
208 166 56 29 109 64 117 77 20 30 25 29 11 -2z m-983 -39 c19 -8 35 -18 35
-21 0 -3 -9 -1 -19 5 -11 5 -61 10 -111 10 -58 0 -89 4 -85 10 9 15 141 12
180 -4z m1380 -85 c-8 -17 -19 -33 -25 -36 -5 -3 -1 10 11 29 25 43 36 48 14
7z m125 -76 c53 -27 104 -72 139 -120 45 -62 38 -62 -21 2 -64 67 -118 100
-186 113 -74 14 -128 -6 -257 -96 -104 -71 -245 -149 -245 -134 0 3 28 20 62
36 34 16 100 56 147 89 47 33 104 71 126 84 22 13 44 30 49 38 12 21 138 13
186 -12z m-1265 -242 c-17 -25 -165 -175 -165 -166 0 2 38 44 85 94 47 50 85
96 85 102 0 6 3 7 6 4 4 -4 -1 -19 -11 -34z m1638 -195 l19 -33 -28 35 c-16
19 -46 54 -66 76 -21 23 -38 45 -38 50 1 14 92 -90 113 -128z m-1049 -142 c22
-21 65 -51 95 -65 54 -25 65 -26 260 -29 231 -4 265 3 328 66 21 21 31 26 24
14 -14 -26 -66 -67 -106 -82 -19 -8 -102 -11 -233 -11 -177 1 -209 4 -257 22
-61 23 -148 96 -171 143 -14 31 -14 31 3 6 9 -14 35 -43 57 -64z m941 -122
c47 -18 85 -164 85 -326 l0 -117 -53 -78 c-30 -43 -60 -95 -67 -117 -17 -54
-7 -123 30 -195 38 -76 54 -185 46 -305 -12 -156 -70 -273 -230 -458 -130
-150 -275 -234 -468 -269 -62 -11 -138 -29 -168 -40 l-55 -19 -17 23 c-9 12
-16 23 -14 24 1 2 52 4 112 6 107 4 180 18 219 44 11 7 25 13 33 13 33 0 176
150 268 280 66 94 134 214 134 237 0 3 -21 -23 -46 -56 -57 -76 -201 -207
-295 -267 -106 -69 -162 -85 -319 -93 -157 -9 -203 -26 -285 -108 -44 -44 -46
-45 -29 -15 25 45 78 90 133 115 35 16 78 22 181 28 192 10 258 38 428 182
163 138 245 254 272 384 18 87 8 301 -19 383 -46 145 -159 288 -269 342 -55
27 -80 34 -147 36 -106 5 -180 -22 -246 -88 -57 -57 -83 -105 -121 -227 -34
-111 -87 -182 -163 -222 -48 -25 -57 -26 -265 -31 -222 -5 -249 -10 -270 -50
-18 -34 -12 -85 14 -109 24 -23 27 -23 276 -22 195 1 261 5 296 17 49 16 108
48 139 74 40 34 49 32 16 -3 -48 -51 -145 -97 -227 -107 -38 -5 -165 -9 -281
-10 -200 0 -214 1 -233 20 -11 11 -20 24 -20 30 0 6 -4 10 -10 10 -5 0 -10
-13 -10 -30 0 -36 -4 -37 -54 -2 -66 46 -81 74 -81 153 0 69 0 70 40 104 22
19 69 49 105 67 36 17 103 54 150 81 123 71 134 71 209 4 34 -31 75 -58 91
-62 53 -12 125 44 139 108 12 50 -10 102 -67 161 -29 31 -47 58 -45 68 6 26
128 125 197 161 l61 31 305 6 c273 6 309 8 345 26 65 31 111 71 151 132 53 79
65 89 99 76z m-104 -33 c-23 -42 -112 -110 -174 -131 -56 -20 -88 -22 -332
-27 -148 -3 -267 -2 -263 2 3 4 130 10 280 13 l273 7 65 32 c36 18 85 52 110
77 49 51 56 55 41 27z m-888 -21 c-127 -45 -190 -92 -301 -225 l-33 -40 28 40
c56 81 98 127 142 157 53 37 168 88 196 87 11 0 -4 -9 -32 -19z m-807 -35
c-15 -19 -48 -52 -74 -72 -26 -21 -78 -68 -115 -105 -46 -46 -62 -58 -50 -37
19 33 62 74 160 153 33 27 68 63 78 78 9 16 19 27 22 24 3 -3 -6 -21 -21 -41z
m585 -350 c52 -49 81 -79 64 -65 -16 14 -58 51 -92 83 -34 31 -70 57 -80 57
-11 0 -45 -16 -77 -35 -32 -19 -61 -35 -63 -35 -3 0 22 22 56 49 44 36 67 48
80 43 10 -4 60 -47 112 -97z m808 30 c56 -28 135 -95 153 -129 6 -12 -16 4
-48 36 -69 66 -117 93 -193 109 -101 21 -201 -9 -280 -84 -44 -41 -44 -41 -20
-7 28 38 116 96 158 104 14 2 60 3 102 1 58 -2 88 -9 128 -30z m-1069 -45 c0
-5 -3 -9 -7 -8 -5 1 -28 -9 -53 -24 -25 -14 -70 -34 -100 -43 -94 -30 -168
-75 -227 -139 -41 -44 -51 -52 -37 -28 46 80 139 141 281 187 43 14 89 34 103
45 28 22 40 25 40 10z m1553 -51 c-10 -17 -27 -38 -37 -47 -11 -9 -5 4 14 31
38 53 50 62 23 16z m-1498 -130 c-60 -41 -287 -146 -260 -120 6 5 42 22 80 39
39 16 97 45 130 65 64 39 100 50 50 16z m795 -71 c29 -18 60 -44 68 -58 14
-22 11 -21 -19 7 -19 17 -59 43 -89 57 -31 15 -46 26 -35 26 12 0 45 -15 75
-32z m831 -89 c-32 -26 -111 -26 -142 1 l-24 20 39 -16 c42 -17 90 -13 122 10
28 21 33 8 5 -15z m-1150 -28 c-31 -44 -90 -92 -140 -115 -41 -18 -69 -21
-261 -24 -118 -2 -211 0 -207 5 5 4 106 10 225 13 249 6 266 11 351 101 52 56
61 61 32 20z m254 -124 c48 -36 -34 -162 -120 -186 -22 -6 -67 -11 -100 -11
l-60 0 35 18 c19 9 67 56 108 105 76 90 98 102 137 74z m16 -114 c-26 -49
-120 -103 -176 -102 -23 1 -17 4 22 13 56 14 120 53 141 86 15 25 26 27 13 3z
m-995 -89 c13 -3 24 -10 24 -15 0 -12 -79 27 -108 55 -13 11 -29 30 -35 41 -5
11 14 -2 43 -28 29 -26 63 -50 76 -53z m1344 -54 c-18 -33 -127 -145 -199
-204 -109 -90 -161 -108 -321 -117 -179 -9 -236 -30 -350 -127 l-65 -56 54 56
c89 93 193 137 321 138 104 1 186 16 257 49 54 26 88 54 187 155 66 68 122
124 124 125 1 0 -2 -8 -8 -19z m-965 -270 c17 -4 -26 -5 -95 -3 -69 3 -154 0
-189 -6 -87 -14 -199 -69 -262 -128 -29 -26 -47 -38 -41 -27 28 53 132 120
242 155 42 14 86 18 185 17 72 0 144 -4 160 -8z m1215 -23 c0 -2 -10 -12 -22
-23 l-23 -19 19 23 c18 21 26 27 26 19z m-50 -60 c0 -2 -10 -12 -22 -23 l-23
-19 19 23 c18 21 26 27 26 19z m-100 -113 c-78 -79 -130 -115 -261 -180 l-114
-57 -190 -193 c-153 -155 -201 -198 -245 -218 -79 -37 -152 -49 -255 -44 -108
6 -177 32 -226 86 -30 33 -31 34 -4 11 48 -42 80 -60 137 -75 110 -29 276 -10
368 43 25 14 131 112 235 218 l190 192 125 61 c104 50 139 73 205 136 94 89
112 99 35 20z m-1029 2 c-9 -11 -50 -15 -174 -18 -151 -3 -166 -5 -217 -29
-68 -33 -129 -85 -169 -146 -36 -53 -40 -50 -11 8 31 60 94 117 168 152 71 33
134 42 326 45 75 2 87 0 77 -12z m-99 -149 l-17 -47 -71 0 c-40 0 -95 -7 -123
-17 -95 -30 -179 -126 -201 -228 -9 -42 -19 -58 -63 -96 l-52 -46 3 76 c2 50
11 91 24 119 21 45 87 134 123 165 36 32 138 75 210 87 39 7 95 18 125 25 30
6 56 11 57 10 1 0 -6 -22 -15 -48z m70 -79 c47 -10 114 -54 132 -86 5 -10 -8
-2 -29 17 -57 50 -94 61 -219 68 -128 7 -159 0 -239 -54 -47 -32 -49 -33 -27
-8 28 30 89 64 135 76 37 8 183 1 247 -13z m299 -4 c-26 -33 -26 -49 -1 -74
l21 -21 -30 -37 c-17 -20 -45 -57 -63 -82 -70 -95 -174 -113 -247 -43 l-36 35
33 -22 c76 -51 148 -46 197 12 23 27 26 38 23 94 -2 58 0 66 27 94 16 16 33
30 37 30 5 0 18 9 30 20 30 28 33 25 9 -6z m69 -15 c0 -5 -3 -9 -7 -10 -5 0
-18 -2 -30 -5 -27 -5 -30 11 -6 24 18 11 43 5 43 -9z m145 -3 c-62 -16 -131
-50 -167 -84 -16 -14 -28 -21 -28 -14 0 31 156 112 215 111 24 -1 19 -3 -20
-13z"/>
<path d="M4629 5376 c45 -25 48 -81 5 -92 -34 -9 -52 1 -60 31 -4 18 -1 32 11
45 10 11 13 20 7 20 -16 0 -42 -41 -42 -68 0 -28 42 -72 68 -72 28 0 62 42 62
77 0 31 -37 73 -64 73 -6 -1 0 -7 13 -14z"/>
<path d="M5112 4137 c-28 -29 -29 -86 -3 -118 13 -17 29 -23 56 -23 46 0 75
31 75 79 0 74 -80 113 -128 62z m84 5 c6 -4 16 -17 23 -30 31 -58 -68 -104
-104 -48 -17 26 -8 69 17 79 20 8 52 8 64 -1z"/>
<path d="M4185 3845 c-40 -39 -27 -104 25 -125 49 -20 90 16 90 79 0 65 -69
93 -115 46z m94 -17 c14 -24 14 -28 -3 -47 -33 -36 -96 -20 -96 24 0 57 71 73
99 23z"/>
<path d="M5430 3582 c-46 -46 -37 -118 17 -141 79 -33 148 69 91 133 -37 41
-72 43 -108 8z m85 -7 c30 -29 31 -49 6 -74 -21 -21 -79 -19 -93 2 -14 22 -8
57 12 77 26 26 46 25 75 -5z"/>
<path d="M3456 4324 c-24 -17 -78 -18 -94 -2 -6 6 -15 8 -19 5 -11 -12 19 -34
59 -45 31 -9 42 -7 59 7 12 9 20 24 18 33 -4 15 -6 15 -23 2z"/>
<path d="M3382 2060 c-11 -12 -22 -40 -26 -63 -3 -23 -9 -384 -12 -803 l-7
-761 21 -21 c28 -28 76 -28 103 -1 l22 22 -5 797 c-4 769 -5 798 -24 821 -25
32 -48 34 -72 9z"/>
</g>
</svg>
